<?xml version="1.0" standalone="no"?>
<!DOCTYPE svg PUBLIC "-//W3C//DTD SVG 20010904//EN"
 "http://www.w3.org/TR/2001/REC-SVG-20010904/DTD/svg10.dtd">
<svg version="1.0" xmlns="http://www.w3.org/2000/svg"
 width="300.000000pt" height="204.000000pt" viewBox="0 0 300.000000 204.000000"
 preserveAspectRatio="xMidYMid meet">
<metadata>
Created by potrace 1.16, written by Peter Selinger 2001-2019
</metadata>
<g transform="translate(0.000000,204.000000) scale(0.100000,-0.100000)"
fill="#000000" stroke="none">
<path d="M20 315 l0 -195 45 0 45 0 0 78 0 77 45 -75 44 -75 51 -5 c27 -3 50
-3 50 1 0 4 -18 37 -39 74 l-40 68 28 26 c36 33 47 91 29 146 -19 57 -59 75
-170 75 l-88 0 0 -195z"/>
<path d="M322 339 l3 -171 28 -24 c24 -21 38 -24 102 -24 64 0 78 3 102 24
l28 24 3 171 3 171 -45 0 -45 0 -3 -152 -3 -153 -40 0 -40 0 -3 153 -3 152
-45 0 -45 0 3 -171z"/>
<path d="M627 503 c-4 -3 -7 -91 -7 -195 l0 -188 45 0 45 0 1 88 0 87 45 -87
44 -88 45 0 45 0 0 195 0 195 -45 0 -45 0 -1 -87 0 -88 -45 88 c-44 86 -44 87
-82 87 -21 0 -42 -3 -45 -7z"/>
<path d="M930 315 l0 -195 46 0 46 0 -4 90 -3 90 45 -90 45 -90 42 0 43 0 0
196 0 195 -42 -3 -43 -3 -5 -83 -5 -83 -42 85 -43 86 -40 0 -40 0 0 -195z"/>
<path d="M1230 315 l0 -195 45 0 45 0 0 195 0 195 -45 0 -45 0 0 -195z"/>
<path d="M1360 315 l0 -195 40 0 40 0 1 88 0 87 45 -87 44 -88 45 0 45 0 0
195 0 195 -45 0 -45 0 -1 -87 0 -88 -45 88 -44 87 -40 0 -40 0 0 -195z"/>
<path d="M1723 499 c-56 -16 -63 -37 -63 -192 0 -133 1 -139 25 -162 22 -22
32 -25 105 -25 73 0 83 3 105 25 23 22 25 32 25 115 l0 90 -70 0 -70 0 0 -40
c0 -36 2 -40 26 -40 23 0 25 -3 22 -32 -3 -30 -6 -33 -38 -33 l-35 0 -3 108
-3 107 41 0 c29 0 40 -4 40 -15 0 -11 12 -15 45 -15 43 0 45 2 45 28 0 73 -93
111 -197 81z"/>
<path d="M2060 316 l0 -196 45 0 45 0 0 88 0 87 30 -63 c16 -34 33 -62 37 -62
5 0 23 28 40 62 l32 63 0 -87 1 -88 45 0 45 0 -2 193 -3 192 -42 3 -42 3 -37
-72 -36 -73 -37 70 c-35 67 -37 69 -78 72 l-43 3 0 -195z"/>
<path d="M2490 488 c-8 -20 -100 -358 -100 -369 0 -2 20 -3 45 -1 40 4 45 7
55 38 12 34 13 35 58 32 42 -3 46 -6 54 -34 7 -29 12 -32 53 -36 25 -2 45 0
45 3 0 15 -93 355 -101 372 -7 12 -22 17 -55 17 -37 0 -46 -4 -54 -22z"/>
<path d="M2720 315 l0 -195 40 0 40 0 1 88 0 87 45 -87 44 -88 45 0 45 0 0
195 0 195 -45 0 -45 0 -1 -87 0 -88 -45 88 -44 87 -40 0 -40 0 0 -195z"/>
</g>
</svg>
