<?xml version="1.0" standalone="no"?>
<!DOCTYPE svg PUBLIC "-//W3C//DTD SVG 20010904//EN"
 "http://www.w3.org/TR/2001/REC-SVG-20010904/DTD/svg10.dtd">
<svg version="1.0" xmlns="http://www.w3.org/2000/svg"
 width="552.000000pt" height="228.000000pt" viewBox="0 0 552.000000 228.000000"
 preserveAspectRatio="xMidYMid meet">

<g transform="translate(0.000000,228.000000) scale(0.100000,-0.100000)"
fill="#000000" stroke="none">
<path d="M40 1132 l0 -362 80 0 79 0 3 138 3 137 78 -131 c68 -115 82 -132
109 -138 41 -8 158 -8 158 1 0 3 -32 62 -71 131 l-71 124 40 42 c58 60 75 100
75 176 0 113 -48 189 -136 215 -27 8 -116 18 -198 21 l-149 7 0 -361z"/>
<path d="M589 1483 c0 -5 0 -143 1 -308 1 -334 -1 -324 72 -373 38 -24 51 -27
148 -30 126 -4 171 6 225 53 l39 34 4 315 4 316 -79 0 -80 0 -6 -112 c-4 -62
-7 -188 -7 -280 l0 -168 -75 0 -75 0 0 98 c0 55 -3 181 -7 280 l-6 182 -79 0
c-43 0 -78 -3 -79 -7z"/>
<path d="M1190 1483 c-19 -3 -38 -10 -42 -16 -4 -7 -8 -166 -8 -354 l0 -343
80 0 79 0 3 158 3 157 80 -157 80 -158 82 0 83 0 0 360 0 360 -80 0 -80 0 -1
-32 c-1 -18 -4 -87 -8 -153 l-6 -120 -66 130 c-37 72 -75 138 -86 147 -22 20
-62 28 -113 21z"/>
<path d="M1707 1483 c-4 -3 -7 -165 -7 -360 l0 -353 87 0 86 0 -6 163 -6 162
82 -162 82 -163 77 0 78 0 0 361 0 361 -22 -6 c-13 -3 -47 -6 -76 -6 -33 0
-54 -5 -57 -12 -2 -7 -7 -76 -11 -153 l-6 -140 -79 158 -79 157 -68 0 c-38 0
-72 -3 -75 -7z"/>
<path d="M2497 1483 c-4 -3 -7 -165 -7 -360 l0 -353 75 0 74 0 3 155 3 156 80
-155 80 -156 83 0 82 0 0 360 0 361 -82 -3 -83 -3 -5 -153 -5 -153 -77 156
-78 155 -68 0 c-38 0 -72 -3 -75 -7z"/>
<path d="M3780 1129 l0 -359 80 0 80 0 1 158 0 157 54 -107 c30 -58 59 -109
64 -112 12 -8 39 30 92 134 l44 85 3 -157 3 -158 79 0 80 0 0 343 c0 188 -4
347 -8 353 -4 6 -40 14 -80 17 l-72 6 -65 -130 c-36 -71 -67 -129 -69 -129 -3
0 -31 50 -62 111 -64 123 -76 133 -166 142 l-58 6 0 -360z"/>
<path d="M4624 1483 c-18 -2 -39 -12 -47 -21 -23 -27 -202 -676 -191 -694 7
-11 120 -1 146 13 9 5 24 29 34 54 21 57 37 66 105 58 73 -8 87 -17 99 -63 6
-22 18 -44 28 -48 25 -13 104 -22 131 -15 27 7 31 -14 -60 323 -88 323 -106
378 -127 384 -32 8 -87 13 -118 9z"/>
<path d="M4990 1130 l0 -360 69 0 68 0 6 68 c4 37 7 105 8 152 l0 85 77 -152
77 -153 82 0 83 0 0 360 0 360 -80 0 -79 0 -3 -157 -3 -158 -83 158 -83 157
-69 0 -70 0 0 -360z"/>
<path d="M2260 1125 l0 -355 80 0 80 0 0 355 0 355 -80 0 -80 0 0 -355z"/>
<path d="M3177 1469 c-68 -16 -94 -35 -114 -86 -16 -42 -18 -79 -18 -280 0
-218 1 -233 21 -259 45 -61 66 -69 192 -72 137 -4 175 5 222 53 l35 36 3 165
3 164 -131 0 -132 0 4 -66 c4 -71 14 -84 61 -84 25 0 27 -3 27 -43 0 -56 -13
-67 -76 -67 l-51 0 -7 77 c-3 42 -6 129 -6 195 l0 118 60 0 c51 0 62 -4 84
-27 21 -22 33 -26 83 -27 77 -1 86 6 80 61 -6 60 -32 92 -97 126 -45 23 -65
27 -129 26 -42 -1 -93 -5 -114 -10z"/>
</g>
</svg>
